<?xml version="1.0" encoding="utf-8"?>
<!-- Generator: Adobe Illustrator 22.1.0, SVG Export Plug-In . SVG Version: 6.00 Build 0)  -->
<svg version="1.1" id="_x2D_-" xmlns="http://www.w3.org/2000/svg" xmlns:xlink="http://www.w3.org/1999/xlink" x="0px" y="0px"
	 viewBox="0 0 50 50" style="enable-background:new 0 0 50 50;" xml:space="preserve">
<style type="text/css">
	.st0{fill:#60FC7C;}
	.st1{fill-rule:evenodd;clip-rule:evenodd;fill:#FFFFFF;}
</style>
<g>
	<ellipse transform="matrix(0.7071 -0.7071 0.7071 0.7071 -10.3553 25)" class="st0" cx="25" cy="25" rx="25" ry="25"/>
	<g>
		<path class="st1" d="M25,9C16.2,9,9,16.2,9,25c0,3.1,0.9,6.1,2.5,8.6L9.2,39C9,39.5,9,40.1,9.4,40.5C9.7,40.8,10,41,10.4,41
			c0.1,0,0.2,0,0.4,0l6.7-1.8c2.3,1.2,4.9,1.9,7.5,1.9c8.8,0,16-7.2,16-16C41,16.2,33.8,9,25,9z M25,38.2c-2.3,0-4.6-0.6-6.6-1.8
			c-0.2-0.1-0.5-0.2-0.7-0.2c-0.1,0-0.2,0-0.4,0l-4.4,1.2l1.5-3.3c0.2-0.5,0.2-1-0.1-1.4c-1.6-2.3-2.5-4.9-2.5-7.7
			c0-7.3,5.9-13.2,13.2-13.2c7.3,0,13.2,5.9,13.2,13.2C38.2,32.3,32.3,38.2,25,38.2z"/>
		<path class="st1" d="M31.1,27.4c-0.7-0.4-1.5-0.8-2.3-0.5c-0.6,0.2-1,1.2-1.4,1.7c-0.2,0.2-0.4,0.3-0.7,0.2
			c-2.3-0.9-4-2.4-5.3-4.5c-0.2-0.3-0.2-0.6,0.1-0.9c0.4-0.4,0.9-0.9,1-1.5c0.1-0.6-0.2-1.3-0.4-1.8c-0.3-0.7-0.7-1.7-1.4-2
			c-0.6-0.4-1.5-0.2-2,0.3c-1,0.8-1.4,2-1.4,3.2c0,0.3,0,0.7,0.1,1c0.2,0.8,0.6,1.6,1,2.3c0.3,0.5,0.7,1.1,1,1.6
			c1.2,1.6,2.7,3.1,4.5,4.1c0.9,0.5,1.8,1,2.8,1.3c1.1,0.4,2.1,0.7,3.2,0.5c1.2-0.2,2.5-1,2.9-2.2C33,29.8,33,29.4,33,29
			C32.8,28.2,31.8,27.8,31.1,27.4z"/>
	</g>
</g>
</svg>
