<?xml version="1.0" encoding="utf-8"?>
<!-- Generator: Adobe Illustrator 22.1.0, SVG Export Plug-In . SVG Version: 6.00 Build 0)  -->
<svg version="1.1" id="_x2D_-" xmlns="http://www.w3.org/2000/svg" xmlns:xlink="http://www.w3.org/1999/xlink" x="0px" y="0px"
	 viewBox="0 0 50 50" style="enable-background:new 0 0 50 50;" xml:space="preserve">
<style type="text/css">
	.st0{fill:#3C5A99;}
	.st1{fill:#A2B1CE;}
	.st2{fill:#E8ECF3;}
	.st3{fill:#A7B5D1;}
	.st4{fill-rule:evenodd;clip-rule:evenodd;fill:#FFFFFF;}
</style>
<g>
	<ellipse transform="matrix(0.2298 -0.9732 0.9732 0.2298 -5.0751 43.5874)" class="st0" cx="25" cy="25" rx="25" ry="25"/>
	<path class="st1" d="M24.5,26.4c0-0.1,0-0.2-0.1-0.4c0-0.7-0.1-1.5,0.3-2.2c0.1,0.1,0.2,0.2,0.4,0.3c0.8,0.6,0.1,1.5,0.3,2.2
		c-0.1,0-0.2,0-0.3,0C24.9,26.4,24.7,26.4,24.5,26.4z"/>
	<path class="st2" d="M25.6,24.6c-0.2,0.4-0.3,0.8-0.5,1.2c-0.2-0.4-1.4-0.9,0-1.3C25.2,24.5,25.4,24.6,25.6,24.6z"/>
	<path class="st3" d="M24.5,23.9c0.2,0,0.4,0,0.6,0c0.1,0.3,0.2,0.6,0.3,1c-0.3,0.2,0,0.4,0,0.6c-0.1,0.1-0.2,0.2-0.3,0.3
		c-0.3,0.1-0.3,0.4-0.3,0.6C24.2,25.6,24.6,24.7,24.5,23.9z"/>
	<path class="st4" d="M20.9,25.3v15.3c0,0.2,0.2,0.4,0.4,0.4h5.7c0.2,0,0.4-0.2,0.4-0.4V25h4.1c0.2,0,0.4-0.2,0.4-0.4l0.4-4.7
		c0-0.2-0.2-0.4-0.4-0.4h-4.5v-3.3c0-0.8,0.6-1.4,1.4-1.4h3.2c0.2,0,0.4-0.2,0.4-0.4V9.7c0-0.2-0.2-0.4-0.4-0.4h-5.4
		c-3.2,0-5.7,2.6-5.7,5.7v4.5H18c-0.2,0-0.4,0.2-0.4,0.4v4.7c0,0.2,0.2,0.4,0.4,0.4h2.8V25.3z"/>
</g>
</svg>
