<?xml version="1.0" encoding="utf-8"?>
<!-- Generator: Adobe Illustrator 22.1.0, SVG Export Plug-In . SVG Version: 6.00 Build 0)  -->
<svg version="1.1" id="_x2D_-" xmlns="http://www.w3.org/2000/svg" xmlns:xlink="http://www.w3.org/1999/xlink" x="0px" y="0px"
	 viewBox="0 0 50 50" style="enable-background:new 0 0 50 50;" xml:space="preserve">
<style type="text/css">
	.st0{fill:url(#SVGID_1_);}
	.st1{fill:#FFFFFF;}
</style>
<g>
	<linearGradient id="SVGID_1_" gradientUnits="userSpaceOnUse" x1="3.6818" y1="46.3182" x2="57.7093" y2="-7.7093">
		<stop  offset="1.104800e-03" style="stop-color:#FBE18A"/>
		<stop  offset="0.2094" style="stop-color:#FCBB45"/>
		<stop  offset="0.3765" style="stop-color:#F75274"/>
		<stop  offset="0.5238" style="stop-color:#D53692"/>
		<stop  offset="0.7394" style="stop-color:#8F39CE"/>
		<stop  offset="1" style="stop-color:#5B4FE9"/>
	</linearGradient>
	<circle class="st0" cx="25" cy="25" r="25"/>
	<g>
		<circle class="st1" cx="33.8" cy="16.3" r="1.9"/>
		<path class="st1" d="M25.2,16.8c-4.5,0-8.2,3.7-8.2,8.2s3.7,8.2,8.2,8.2s8.2-3.7,8.2-8.2S29.7,16.8,25.2,16.8z M25.2,30.2
			c-2.9,0-5.2-2.3-5.2-5.2c0-2.9,2.3-5.2,5.2-5.2s5.2,2.3,5.2,5.2C30.4,27.9,28.1,30.2,25.2,30.2z"/>
		<g>
			<path class="st1" d="M31.7,41.6H18.5c-5.5,0-10-4.5-10-10V18.4c0-5.5,4.5-10,10-10h13.2c5.5,0,10,4.5,10,10v13.2
				C41.6,37.1,37.2,41.6,31.7,41.6z M18.5,11.6c-3.8,0-6.8,3.1-6.8,6.8v13.2c0,3.8,3.1,6.8,6.8,6.8h13.2c3.8,0,6.8-3.1,6.8-6.8V18.4
				c0-3.8-3.1-6.8-6.8-6.8H18.5z"/>
		</g>
	</g>
</g>
</svg>
